<svg width="159" height="87" viewBox="0 0 159 87" fill="none" xmlns="http://www.w3.org/2000/svg">
<path d="M14.4545 0C6.43227 0 0 6.4525 0 14.5V65.25H14.4545C14.4545 71.0185 16.7389 76.5507 20.805 80.6296C24.8711 84.7085 30.386 87 36.1364 87C41.8867 87 47.4016 84.7085 51.4677 80.6296C55.5339 76.5507 57.8182 71.0185 57.8182 65.25H101.182C101.182 71.0185 103.466 76.5507 107.532 80.6296C111.598 84.7085 117.113 87 122.864 87C128.614 87 134.129 84.7085 138.195 80.6296C142.261 76.5507 144.545 71.0185 144.545 65.25H159V14.5C159 6.4525 152.568 0 144.545 0H14.4545ZM10.8409 10.875H39.75V29H10.8409V10.875ZM50.5909 10.875H79.5V29H50.5909V10.875ZM90.3409 10.875H119.25V29H90.3409V10.875ZM130.091 10.875H148.159V50.75L130.091 36.25V10.875ZM36.1364 54.375C39.0116 54.375 41.769 55.5208 43.802 57.5602C45.8351 59.5997 46.9773 62.3658 46.9773 65.25C46.9773 68.1342 45.8351 70.9003 43.802 72.9398C41.769 74.9792 39.0116 76.125 36.1364 76.125C33.2612 76.125 30.5037 74.9792 28.4707 72.9398C26.4376 70.9003 25.2955 68.1342 25.2955 65.25C25.2955 62.3658 26.4376 59.5997 28.4707 57.5602C30.5037 55.5208 33.2612 54.375 36.1364 54.375V54.375ZM122.864 54.375C125.739 54.375 128.496 55.5208 130.529 57.5602C132.562 59.5997 133.705 62.3658 133.705 65.25C133.705 68.1342 132.562 70.9003 130.529 72.9398C128.496 74.9792 125.739 76.125 122.864 76.125C119.988 76.125 117.231 74.9792 115.198 72.9398C113.165 70.9003 112.023 68.1342 112.023 65.25C112.023 62.3658 113.165 59.5997 115.198 57.5602C117.231 55.5208 119.988 54.375 122.864 54.375Z" fill="white"/>
</svg>
