<svg width="54" height="62" viewBox="0 0 54 62" fill="none" xmlns="http://www.w3.org/2000/svg">
<path d="M10.1693 0V9.61768H15.1454V0H10.1693ZM38.8546 0V9.61768H43.8232V0H38.8546ZM0 4.62257V18.0873H54V4.62257H47.3811V13.224H35.2968V4.62257H18.6958V13.224H6.61894V4.62257H0ZM0 21.6227V61.3832H54V21.6226L0 21.6227ZM21.2125 30.8095C23.9613 30.8369 26.5625 32.1775 27.5968 34.6718C28.0831 36.1617 28.3421 37.7501 27.7365 39.1372C26.9785 40.7374 25.4417 41.5705 23.934 42.1074C26.7636 42.8568 28.6259 44.663 28.6429 47.5967C28.5972 49.609 27.6694 51.3914 26.2684 52.5563C24.7788 53.7517 22.9776 54.4194 21.2125 54.4317C16.2347 54.4317 13.7447 52.1536 13.7447 47.5967H18.139C18.2324 49.5152 19.1261 50.9744 20.9654 51.0002C23.3035 50.8385 24.2293 49.2791 24.2486 47.2824C24.2475 46.0764 23.8137 44.8404 22.7805 44.3756C21.4475 43.8134 19.9595 43.8802 18.6608 43.8788V40.4094C20.7838 40.4543 23.7001 40.0742 23.7218 37.5051C23.6392 35.6155 22.8773 34.2672 21.0702 34.2435C19.1453 34.3613 18.089 35.472 18.0691 37.2263H13.7447C13.8386 32.8029 17.4184 30.8292 21.2125 30.8095ZM36.3804 31.2378H40.2529V54.011H36.0633V35.6981C34.4582 37.0912 32.6816 38.0831 30.7277 38.6734V34.7782C33.0073 33.8809 34.8916 32.7017 36.3804 31.2378Z" fill="white"/>
</svg>
