<svg width="57" height="92" viewBox="0 0 57 92" fill="none" xmlns="http://www.w3.org/2000/svg">
<path d="M47.5 29.795H57C57 16.7906 43.9137 10.8591 33.25 9.49315V0H23.75V9.49315C13.0862 10.8591 0 16.7906 0 29.795C0 42.1989 12.6635 48.6484 23.75 50.1015V72.8832C16.872 71.7327 9.5 68.1894 9.5 61.882H0C0 73.7496 11.5187 80.7629 23.75 82.2159V91.677H33.25V82.1884C43.9137 80.8224 57 74.8864 57 61.882C57 48.8776 43.9137 42.9461 33.25 41.5801V18.7938C39.5675 19.8893 47.5 23.1072 47.5 29.795ZM9.5 29.795C9.5 23.1072 17.4325 19.8893 23.75 18.7938V40.7917C17.2377 39.632 9.5 36.1987 9.5 29.795ZM47.5 61.882C47.5 68.5698 39.5675 71.7877 33.25 72.8832V50.8807C39.5675 51.9763 47.5 55.1941 47.5 61.882Z" fill="white"/>
</svg>
