<svg width="37" height="37" viewBox="0 0 37 37" fill="none" xmlns="http://www.w3.org/2000/svg">
<path d="M35.52 0H1.48C0.661375 0 0 0.661375 0 1.48V35.52C0 36.3386 0.661375 37 1.48 37H35.52C36.3386 37 37 36.3386 37 35.52V1.48C37 0.661375 36.3386 0 35.52 0ZM34.04 34.04H25.5254V22.6718H30.3354L31.0569 17.0894H25.5254V13.5235C25.5254 11.9047 25.974 10.804 28.2911 10.804H31.2465V5.809C30.7331 5.73963 28.9803 5.587 26.936 5.587C22.6718 5.587 19.7534 8.19088 19.7534 12.9685V17.0847H14.9341V22.6671H19.758V34.04H2.96V2.96H34.04V34.04Z" fill="#353535"/>
</svg>
