<svg width="39" height="38" viewBox="0 0 39 38" fill="none" xmlns="http://www.w3.org/2000/svg">
<path fill-rule="evenodd" clip-rule="evenodd" d="M11.6668 0.114C13.6929 0.0207272 14.3389 0 19.5 0C24.6611 0 25.3071 0.0224545 27.3315 0.114C29.3558 0.205545 30.7376 0.528545 31.9467 0.996636C33.2128 1.47509 34.3615 2.223 35.3115 3.19027C36.2787 4.13855 37.0249 5.28545 37.5016 6.55327C37.9715 7.76236 38.2927 9.14418 38.386 11.1651C38.4793 13.1946 38.5 13.8406 38.5 19C38.5 24.1611 38.4775 24.8071 38.386 26.8332C38.2945 28.8541 37.9715 30.2359 37.5016 31.445C37.0249 32.713 36.2775 33.8618 35.3115 34.8115C34.3615 35.7787 33.2128 36.5249 31.9467 37.0016C30.7376 37.4715 29.3558 37.7927 27.3349 37.886C25.3071 37.9793 24.6611 38 19.5 38C14.3389 38 13.6929 37.9775 11.6668 37.886C9.64591 37.7945 8.26409 37.4715 7.055 37.0016C5.78704 36.5248 4.63824 35.7774 3.68855 34.8115C2.72193 33.8626 1.97391 32.7143 1.49664 31.4467C1.02855 30.2376 0.707273 28.8558 0.614 26.8349C0.520727 24.8054 0.5 24.1594 0.5 19C0.5 13.8389 0.522455 13.1929 0.614 11.1685C0.705545 9.14418 1.02855 7.76236 1.49664 6.55327C1.97461 5.2856 2.72321 4.13736 3.69027 3.18855C4.63862 2.22214 5.78627 1.47413 7.05327 0.996636C8.26236 0.528545 9.64418 0.207273 11.6651 0.114H11.6668ZM27.1777 3.534C25.1741 3.44245 24.573 3.42345 19.5 3.42345C14.427 3.42345 13.8259 3.44245 11.8223 3.534C9.96891 3.61864 8.96364 3.92782 8.29345 4.18864C7.40736 4.53409 6.77346 4.94346 6.10846 5.60846C5.47808 6.22173 4.99295 6.96831 4.68864 7.79345C4.42782 8.46364 4.11864 9.46891 4.034 11.3223C3.94245 13.3259 3.92345 13.927 3.92345 19C3.92345 24.073 3.94245 24.6741 4.034 26.6777C4.11864 28.5311 4.42782 29.5364 4.68864 30.2065C4.99264 31.0305 5.478 31.7784 6.10846 32.3915C6.72164 33.022 7.46955 33.5074 8.29345 33.8114C8.96364 34.0722 9.96891 34.3814 11.8223 34.466C13.8259 34.5575 14.4253 34.5765 19.5 34.5765C24.5747 34.5765 25.1741 34.5575 27.1777 34.466C29.0311 34.3814 30.0364 34.0722 30.7065 33.8114C31.5926 33.4659 32.2265 33.0565 32.8915 32.3915C33.522 31.7784 34.0074 31.0305 34.3114 30.2065C34.5722 29.5364 34.8814 28.5311 34.966 26.6777C35.0575 24.6741 35.0765 24.073 35.0765 19C35.0765 13.927 35.0575 13.3259 34.966 11.3223C34.8814 9.46891 34.5722 8.46364 34.3114 7.79345C33.9659 6.90736 33.5565 6.27346 32.8915 5.60846C32.2782 4.97812 31.5317 4.493 30.7065 4.18864C30.0364 3.92782 29.0311 3.61864 27.1777 3.534ZM17.0732 24.8572C18.4285 25.4214 19.9377 25.4975 21.3429 25.0726C22.7481 24.6477 23.9622 23.7481 24.7779 22.5275C25.5935 21.3069 25.9601 19.841 25.815 18.3801C25.6699 16.9192 25.0221 15.554 23.9823 14.5177C23.3194 13.8553 22.5179 13.348 21.6355 13.0325C20.7531 12.717 19.8117 12.6011 18.879 12.6931C17.9464 12.785 17.0458 13.0827 16.242 13.5645C15.4382 14.0463 14.7513 14.7004 14.2306 15.4796C13.7099 16.2587 13.3685 17.1437 13.2309 18.0707C13.0933 18.9976 13.1629 19.9436 13.4348 20.8404C13.7066 21.7373 14.1739 22.5627 14.8031 23.2572C15.4322 23.9518 16.2075 24.4982 17.0732 24.8572ZM12.5944 12.0944C13.5012 11.1875 14.5778 10.4681 15.7627 9.97735C16.9476 9.48656 18.2175 9.23396 19.5 9.23396C20.7825 9.23396 22.0524 9.48656 23.2373 9.97735C24.4222 10.4681 25.4988 11.1875 26.4056 12.0944C27.3125 13.0012 28.0319 14.0778 28.5226 15.2627C29.0134 16.4476 29.266 17.7175 29.266 19C29.266 20.2825 29.0134 21.5524 28.5226 22.7373C28.0319 23.9222 27.3125 24.9988 26.4056 25.9056C24.5741 27.7371 22.0901 28.766 19.5 28.766C16.9099 28.766 14.4259 27.7371 12.5944 25.9056C10.7629 24.0741 9.73396 21.5901 9.73396 19C9.73396 16.4099 10.7629 13.9259 12.5944 12.0944ZM31.432 10.6884C31.6567 10.4764 31.8366 10.2214 31.9611 9.93868C32.0855 9.65592 32.1519 9.35106 32.1564 9.04215C32.161 8.73325 32.1034 8.42658 31.9873 8.14031C31.8711 7.85403 31.6987 7.59397 31.4803 7.37552C31.2618 7.15707 31.0018 6.98467 30.7155 6.86853C30.4292 6.75239 30.1226 6.69487 29.8137 6.69937C29.5048 6.70387 29.1999 6.77031 28.9171 6.89475C28.6344 7.01919 28.3794 7.19909 28.1675 7.42382C27.7552 7.86087 27.5295 8.44139 27.5382 9.04215C27.547 9.64291 27.7895 10.2166 28.2144 10.6415C28.6392 11.0663 29.2129 11.3088 29.8137 11.3176C30.4144 11.3264 30.995 11.1006 31.432 10.6884Z" fill="#353535"/>
</svg>
