<svg width="137" height="128" viewBox="0 0 137 128" fill="none" xmlns="http://www.w3.org/2000/svg">
<path d="M122.889 0H52.6667V21.9444H61.4445V8.77778H122.889C125.522 8.77778 127.278 10.5333 127.278 13.1667V61.4445C127.278 64.0778 125.522 65.8333 122.889 65.8333H65.8333V96.5556H42.5722L26.3333 109.283V96.5556H13.1667C10.5333 96.5556 8.77778 94.8 8.77778 92.1667V43.8889C8.77778 41.2556 10.5333 39.5 13.1667 39.5H70.2222V30.7222H13.1667C5.70556 30.7222 0 36.4278 0 43.8889V92.1667C0 99.6278 5.70556 105.333 13.1667 105.333H17.5556V127.717L45.2056 105.333H74.6111V74.6111H122.889C130.35 74.6111 136.056 68.9056 136.056 61.4445V13.1667C136.056 5.70556 130.35 0 122.889 0Z" fill="#353535"/>
<path d="M18.4333 87.3389H28.9667L31.6 80.3167H45.2056L47.8389 87.3389H58.3722L43.45 48.2778H32.9167L18.4333 87.3389ZM38.1833 59.2501L42.5722 72.8556H33.7944L38.1833 59.2501Z" fill="#353535"/>
<path d="M79 61.4445C83.8278 61.4445 90.4111 60.1279 96.5556 57.0556C102.7 60.1279 109.722 61.4445 114.111 61.4445V52.6667C114.111 52.6667 109.722 52.6667 104.894 50.9112C110.161 45.6445 114.111 37.7445 114.111 26.3334V21.9445H100.944V13.1667H92.1667V21.9445H79V30.7223H104.894C104.017 38.6223 100.506 43.4501 96.5556 46.5223C93.9222 44.3279 91.2889 41.2556 89.5333 37.3056H80.3167C82.0722 43.0112 84.7056 47.4001 88.2167 50.9112C83.8278 52.6667 79.8778 52.6667 79 52.6667V61.4445V61.4445Z" fill="#353535"/>
</svg>
