<svg width="29" height="38" viewBox="0 0 29 38" fill="none" xmlns="http://www.w3.org/2000/svg">
<path d="M0.000133178 13.631C0.000133178 11.9881 0.284938 10.436 0.846172 8.98739C1.38239 7.58037 2.17906 6.28901 3.19372 5.18211C4.20632 4.08975 5.36508 3.14517 6.63651 2.37567C7.94099 1.57988 9.35326 0.979513 10.829 0.593395C12.3226 0.19792 13.8605 -0.00152333 15.4047 8.75995e-06C17.79 8.75995e-06 20.0098 0.508928 22.0683 1.52254C24.1 2.51767 25.8293 4.04485 27.0755 5.94444C28.3613 7.87664 29 10.0622 29 12.4991C29 13.9604 28.8576 15.3901 28.5665 16.788C28.2807 18.1852 27.8264 19.5418 27.2137 20.8277C26.6297 22.0724 25.8661 23.2231 24.9478 24.2423C24.0249 25.2453 22.9072 26.046 21.6642 26.5947C20.3147 27.1911 18.8549 27.4912 17.3816 27.4753C16.3576 27.4753 15.3356 27.2325 14.3263 26.7447C13.3169 26.259 12.5923 25.5917 12.1567 24.7364C12.0038 25.3298 11.7944 26.1872 11.5159 27.3085C11.2478 28.4277 11.0677 29.1499 10.9882 29.4772C10.9044 29.8024 10.7494 30.3451 10.5233 31.0969C10.3699 31.653 10.1731 32.1959 9.93481 32.7208L9.21442 34.144C8.90288 34.7548 8.5546 35.3458 8.17153 35.9136C7.79249 36.4669 7.3234 37.1279 6.76426 37.8881L6.45223 38L6.24491 37.7719C6.02083 35.3794 5.90565 33.9477 5.90565 33.4746C5.90565 32.0746 6.07109 30.5035 6.39778 28.7592C6.71818 27.0171 7.22497 24.8272 7.90557 22.1939C8.58617 19.5628 8.97568 18.0149 9.08039 17.5567C8.60083 16.5705 8.35791 15.2824 8.35791 13.6986C8.35791 12.4337 8.74952 11.249 9.53482 10.134C10.3222 9.02329 11.317 8.46791 12.5232 8.46791C13.4467 8.46791 14.1629 8.77622 14.676 9.39495C15.1911 10.0116 15.4424 10.7887 15.4424 11.7368C15.4424 12.742 15.1116 14.1969 14.4456 16.0996C13.7797 18.0043 13.4488 19.4255 13.4488 20.3694C13.4488 21.326 13.7881 22.1264 14.4666 22.7535C15.1362 23.381 16.0217 23.7211 16.9356 23.7017C17.7649 23.7017 18.5334 23.5116 19.2475 23.1294C19.9505 22.7584 20.5589 22.2287 21.0255 21.5816C22.0416 20.1758 22.766 18.5777 23.1552 16.883C23.3563 15.9919 23.5112 15.1451 23.6076 14.349C23.7102 13.5487 23.7541 12.7927 23.7541 12.0747C23.7541 9.44141 22.9249 7.38884 21.2768 5.9191C19.6203 4.44935 17.4633 3.71871 14.81 3.71871C11.7923 3.71871 9.26887 4.70276 7.24801 6.6772C5.22505 8.6453 4.20729 11.1477 4.20729 14.1822C4.20729 14.8516 4.30781 15.4978 4.49838 16.1228C4.68476 16.7458 4.88789 17.242 5.10778 17.6095C5.32557 17.9706 5.5308 18.3232 5.71718 18.6484C5.90565 18.9736 6.00408 19.2059 6.00408 19.3453C6.00408 19.7718 5.89309 20.3272 5.66901 21.0135C5.43656 21.6998 5.16223 22.0419 4.83135 22.0419C4.79994 22.0419 4.6701 22.0187 4.44393 21.9701C3.66064 21.7343 2.95326 21.2935 2.39375 20.6925C1.79993 20.0697 1.33129 19.3368 1.0137 18.5344C0.697021 17.7348 0.450366 16.9088 0.276562 16.0658C0.0887822 15.2682 -0.0040156 14.4508 0.000133178 13.631Z" fill="#353535"/>
</svg>
